<svg width="32" height="32" viewBox="0 0 32 32" fill="none" xmlns="http://www.w3.org/2000/svg">
<path d="M16 14.81L28.78 6.6C28.2662 6.21461 27.6422 6.0043 27 6H4.99997C4.35771 6.0043 3.73378 6.21461 3.21997 6.6L16 14.81Z" fill="black"/>
<path d="M16.54 16.8398L16.37 16.9198H16.29C16.1979 16.9609 16.1001 16.9879 16 16.9998C15.917 17.0102 15.833 17.0102 15.75 16.9998H15.67L15.5 16.9198L2.1 8.25977C2.03598 8.5013 2.00238 8.7499 2 8.99977V22.9998C2 23.7954 2.31607 24.5585 2.87868 25.1211C3.44129 25.6837 4.20435 25.9998 5 25.9998H27C27.7956 25.9998 28.5587 25.6837 29.1213 25.1211C29.6839 24.5585 30 23.7954 30 22.9998V8.99977C29.9976 8.7499 29.964 8.5013 29.9 8.25977L16.54 16.8398Z" fill="black"/>
</svg>
